PathFileType	4	(X/Y/Z)	D:\Share\Shared_Data\Ergonomics\Sit To Stand Pertubation\S2\Perturbed.trc
DataRate	CameraRate	NumFrames	NumMarkers	Units	OrigDataRate	OrigDataStartFrame	OrigNumFrames	
100	100	8	18	m	100	11558	261
Frame#	Time	R_Toe			R_ASIS			R_Pelvis			V_Sacral			L_Pelvis			L_ASIS			Clavical			R_Acromium			L_Acromium			Sternum			Torso			R_Thigh_Med			R_Thigh_Lat			R_Thigh			R_Shank_Med			R_Shank_Lat			R_Shank			R_Heel			
		X1	Y1	Z1	X2	Y2	Z2	X3	Y3	Z3	X4	Y4	Z4	X5	Y5	Z5	X6	Y6	Z6	X7	Y7	Z7	X8	Y8	Z8	X9	Y9	Z9	X10	Y10	Z10	X11	Y11	Z11	X12	Y12	Z12	X13	Y13	Z13	X14	Y14	Z14	X15	Y15	Z15	X16	Y16	Z16	X17	Y17	Z17	X18	Y18	Z18	

11558	115.57	0.4301817	0.083961922	0.14549944	0.18343077	0.87224689	0.13523845	0.11799432	0.91071899	0.18129114	-0.034329834	0.92398914	0.024823942	0.073614807	0.92156201	-0.15834383	0.16615862	0.88868829	-0.13363226	0.39955841	1.221719	-0.0041414628	0.33688693	1.287326	0.2030495	0.3189523	1.3069202	-0.18464555	0.36014111	1.0640044	-0.0045387793	0.38378973	1.1891063	-0.11449885	0.40472052	0.49020657	0.11048428	0.38521948	0.50796854	0.20736237	0.3353009	0.69200269	0.17489752	0.29505423	0.11209372	0.11364936	0.27568683	0.096258385	0.20763689	0.34890775	0.35933392	0.22986913	0.19461372	0.055903248	0.15062943
11559	115.58	0.43008344	0.084031837	0.1456545	0.18725508	0.87952734	0.13540205	0.12153339	0.91713116	0.18132977	-0.030419634	0.93055676	0.024588352	0.07739032	0.9277702	-0.15851048	0.17020825	0.89589148	-0.13375368	0.39863483	1.2324806	-0.0036737545	0.3351535	1.2971627	0.20355708	0.31729959	1.3165643	-0.18428996	0.36144305	1.0744025	-0.0042441592	0.38385641	1.1996204	-0.11428326	0.4030361	0.49068393	0.11044313	0.38365329	0.50850482	0.20699005	0.33711429	0.69315137	0.1749911	0.29498788	0.11213024	0.113725	0.27561444	0.096222496	0.20772	0.34755856	0.35984604	0.22978613	0.19465762	0.05574593	0.15058318
11560	115.59	0.43001709	0.084028496	0.14580901	0.19101144	0.88671002	0.13548317	0.12511668	0.92343506	0.18133078	-0.02646718	0.93702197	0.024334322	0.081189674	0.93391339	-0.15867598	0.17426225	0.90307098	-0.13384933	0.39764224	1.2430817	-0.0031970885	0.33335449	1.3068344	0.2040609	0.31559949	1.3260378	-0.18393561	0.36275934	1.0846523	-0.0039673009	0.38385297	1.2099877	-0.11405264	0.40125201	0.49116992	0.1103735	0.38199838	0.50907086	0.20660777	0.33882458	0.69424884	0.17503682	0.29495703	0.11216091	0.11380215	0.27556665	0.096185028	0.20779585	0.34616025	0.36037085	0.22968169	0.19471881	0.055557281	0.15051834
11561	115.6	0.42996613	0.084000404	0.14596263	0.19467345	0.89377802	0.13547853	0.12872922	0.9296181	0.1812923	-0.022478138	0.94335992	0.024063177	0.08501162	0.93997113	-0.15884238	0.17830348	0.91020746	-0.13391684	0.39658698	1.2535103	-0.0027145991	0.33149579	1.316326	0.20455914	0.31383929	1.335338	-0.18357701	0.36405719	1.0947531	-0.0037034369	0.38378662	1.2202023	-0.11380662	0.39938019	0.49166037	0.11027592	0.38026227	0.509664	0.20621928	0.34043512	0.69528931	0.17503993	0.29494019	0.11219257	0.11388258	0.27552405	0.096148819	0.20786632	0.34470956	0.36090649	0.22955592	0.19478961	0.05532576	0.15043466
11562	115.61	0.42990863	0.08400322	0.14611562	0.19823137	0.90071729	0.13539375	0.13233849	0.93566895	0.18121553	-0.018459799	0.94954846	0.023776402	0.088856087	0.94592175	-0.15901207	0.1823199	0.91727612	-0.1339519	0.39547708	1.263756	-0.0022308788	0.32958273	1.3256241	0.20504863	0.31201282	1.3444595	-0.18321205	0.36531357	1.1047007	-0.0034494777	0.38366641	1.2302593	-0.11354672	0.39743433	0.4921514	0.11015106	0.37845172	0.51028012	0.20582812	0.34195261	0.69626666	0.17500598	0.2949104	0.11223267	0.11396745	0.27546307	0.096118141	0.20793268	0.34320078	0.36145163	0.22941083	0.19485739	0.055052559	0.15033719
11563	115.62	0.42982315	0.084085121	0.14627029	0.20170169	0.90751782	0.13524747	0.13589717	0.94157507	0.18110782	-0.014420754	0.95556696	0.02347489	0.092723953	0.95174573	-0.15918762	0.1863042	0.92424731	-0.13395126	0.39432321	1.2738115	-0.0017512451	0.32761957	1.3347169	0.20552596	0.31011868	1.3533964	-0.18284151	0.3665199	1.114488	-0.003204077	0.38349979	1.2401541	-0.11327644	0.39542868	0.49264011	0.11000056	0.37657489	0.51091599	0.20543649	0.34338696	0.69717554	0.17493872	0.29484259	0.11228754	0.11405663	0.27536157	0.096097229	0.20799521	0.34162766	0.36200543	0.22924919	0.19490656	0.054758213	0.15023741
11564	115.63	0.42969644	0.084272812	0.14643069	0.20513274	0.91417322	0.13507227	0.13936339	0.94732092	0.18098158	-0.010369597	0.9613963	0.023158134	0.096616508	0.95742645	-0.15937114	0.1902538	0.9310871	-0.13391599	0.39313898	1.2836716	-0.0012807095	0.32560947	1.3435939	0.20598883	0.30815741	1.3621411	-0.18246783	0.36768222	1.1241035	-0.0029670351	0.38329108	1.2498801	-0.11300073	0.39337625	0.49312396	0.1098268	0.37464246	0.51156967	0.20504515	0.34475079	0.69801343	0.17483972	0.29472104	0.11236005	0.11414866	0.27520541	0.096088028	0.20805321	0.33998666	0.36256696	0.22907291	0.19492346	0.054476349	0.15014954
11565	115.64	0.42952783	0.084564987	0.14660197	0.20859265	0.92067853	0.13490726	0.14272784	0.95288763	0.18085114	-0.0063132482	0.96702191	0.022824432	0.10053417	0.96295105	-0.15956401	0.19417302	0.93776221	-0.13385347	0.39194077	1.2933328	-0.00082327676	0.32355414	1.3522444	0.20643675	0.30613168	1.3706843	-0.18209351	0.3688183	1.1335332	-0.0027384892	0.38304135	1.2594282	-0.11272566	0.39128781	0.49360083	0.10963192	0.37266751	0.51223962	0.20465453	0.34605896	0.69878046	0.17470956	0.2945437	0.11244838	0.114241	0.27499362	0.096089096	0.20810608	0.33827972	0.36313394	0.22888223	0.19490117	0.054237923	0.1500845
